<?xml version="1.0" standalone="no"?>
<!DOCTYPE svg PUBLIC "-//W3C//DTD SVG 20010904//EN"
 "http://www.w3.org/TR/2001/REC-SVG-20010904/DTD/svg10.dtd">
<svg version="1.0" xmlns="http://www.w3.org/2000/svg"
 width="600.000000pt" height="600.000000pt" viewBox="0 0 600.000000 600.000000"
 preserveAspectRatio="xMidYMid meet">
<metadata>
Created by potrace 1.11, written by Peter Selinger 2001-2013
</metadata>
<g transform="translate(0.000000,600.000000) scale(0.100000,-0.100000)"
fill="#000000" stroke="none">
<path d="M0 3000 l0 -3000 3000 0 3000 0 0 3000 0 3000 -3000 0 -3000 0 0
-3000z m2040 0 l0 -1920 -38 0 c-22 0 -73 9 -116 20 -230 58 -408 236 -466
466 -20 75 -20 118 -20 1716 l0 1638 320 0 320 0 0 -1920z m1280 0 l0 -1920
-320 0 -320 0 0 1920 0 1920 320 0 320 0 0 -1920z m794 -20 c230 -58 408 -236
466 -466 19 -73 20 -113 20 -756 l0 -678 -320 0 -320 0 0 960 0 960 38 0 c22
0 73 -9 116 -20z"/>
</g>
</svg>
