<?xml version="1.0" standalone="no"?>
<!DOCTYPE svg PUBLIC "-//W3C//DTD SVG 20010904//EN"
 "http://www.w3.org/TR/2001/REC-SVG-20010904/DTD/svg10.dtd">
<svg version="1.0" xmlns="http://www.w3.org/2000/svg"
 width="700.000000pt" height="700.000000pt" viewBox="0 0 700.000000 700.000000"
 preserveAspectRatio="xMidYMid meet">
<metadata>
Created by potrace 1.11, written by Peter Selinger 2001-2013
</metadata>
<g transform="translate(0.000000,700.000000) scale(0.100000,-0.100000)"
fill="#000000" stroke="none">
<path d="M3234 5534 c-30 -29 -31 -26 51 -184 36 -69 84 -161 107 -206 l41
-80 -93 -180 c-118 -228 -190 -365 -250 -479 -45 -85 -100 -192 -255 -490 -37
-71 -91 -175 -120 -230 -29 -55 -83 -158 -120 -230 -37 -71 -89 -170 -115
-220 -26 -49 -89 -171 -140 -270 -51 -99 -121 -232 -154 -295 -34 -63 -76
-144 -94 -180 -19 -36 -50 -96 -71 -135 -20 -38 -86 -164 -145 -280 -60 -115
-128 -246 -151 -290 -104 -195 -143 -277 -138 -295 12 -45 3 -45 641 -45 527
0 608 2 623 15 10 8 27 49 37 90 11 41 39 143 62 225 42 153 128 466 180 655
16 58 52 188 80 290 28 102 58 210 66 240 8 30 28 103 45 162 17 60 32 116 34
125 2 10 18 68 35 128 17 61 42 151 55 200 13 50 32 117 42 150 l19 60 23 -90
c12 -50 27 -101 32 -115 5 -14 11 -35 14 -48 2 -13 20 -80 40 -150 19 -70 62
-226 95 -347 33 -121 67 -242 75 -270 8 -27 33 -117 55 -200 23 -82 49 -179
59 -215 10 -36 30 -108 44 -160 14 -52 55 -201 91 -330 35 -129 74 -269 85
-310 11 -41 29 -82 39 -90 16 -13 96 -15 619 -15 632 0 624 0 636 45 5 21 -20
72 -273 555 -26 50 -82 158 -125 240 -42 83 -92 177 -110 210 -18 33 -72 137
-120 230 -48 94 -111 215 -140 270 -29 55 -78 150 -110 210 -32 61 -91 175
-133 255 -41 80 -98 190 -127 245 -29 55 -83 159 -120 230 -37 72 -89 171
-115 220 -26 50 -85 162 -131 250 -45 88 -109 210 -141 270 -155 297 -201 392
-195 406 4 8 25 48 48 89 109 202 164 317 161 338 -2 12 -14 29 -26 38 -37 24
-69 4 -104 -63 -100 -194 -148 -283 -152 -283 -5 0 -35 55 -126 232 -30 59
-59 110 -65 113 -25 16 -52 12 -75 -11z"/>
<path d="M775 5369 c-111 -14 -167 -41 -255 -123 -74 -68 -139 -191 -159 -301
-5 -27 -10 -258 -11 -513 0 -255 -5 -486 -10 -515 -36 -190 -159 -341 -299
-363 l-41 -7 0 -142 0 -142 41 -7 c102 -16 192 -91 245 -201 60 -124 63 -160
64 -670 2 -516 5 -548 68 -674 59 -119 153 -203 281 -252 31 -12 367 -22 396
-12 6 2 10 51 10 126 l0 122 -140 5 c-161 6 -177 12 -217 88 -56 104 -57 113
-58 687 -1 487 -5 540 -50 642 -59 134 -157 232 -268 268 -29 10 -50 20 -47
23 3 4 29 16 57 28 124 52 242 201 287 361 18 68 20 105 21 540 0 258 3 495 6
527 11 114 64 215 129 241 17 8 80 14 149 14 66 1 122 4 125 6 4 2 6 59 6 126
l0 123 -140 0 c-77 1 -162 -2 -190 -5z"/>
<path d="M5902 5365 c-4 -5 -7 -63 -7 -127 l-1 -118 118 -1 c65 -1 123 -3 128
-4 6 -1 17 -3 25 -4 42 -3 112 -99 131 -178 4 -15 8 -183 10 -373 6 -495 10
-712 17 -735 3 -11 8 -33 12 -50 21 -83 101 -217 164 -273 36 -31 99 -67 145
-82 l39 -13 -72 -35 c-121 -59 -218 -177 -272 -332 -25 -71 -24 -52 -32 -820
-4 -341 -9 -373 -62 -450 -42 -60 -73 -70 -222 -70 l-128 0 0 -123 c-1 -67 3
-124 7 -127 4 -4 88 -5 185 -4 159 1 184 4 238 24 73 28 105 50 170 115 60 60
120 175 139 265 10 48 14 184 15 524 1 252 4 477 7 500 10 77 72 217 122 277
36 43 108 87 165 100 l57 14 0 142 c0 143 0 143 -23 143 -142 0 -301 196 -321
395 -3 28 -6 255 -6 506 -2 455 -5 503 -39 594 -65 173 -204 298 -354 320 -76
12 -348 11 -355 0z"/>
</g>
</svg>
