<svg xmlns="http://www.w3.org/2000/svg" width="1em" fill="none" viewBox="0 0 600 600"><path fill="currentcolor" fill-rule="evenodd" d="M40 0C17.909 0 0 17.909 0 40v520c0 22.091 17.909 40 40 40h520c22.091 0 40-17.909 40-40V40c0-22.091-17.909-40-40-40H40zm105.272 230.277c5.197 0 10.407 1.942 15.603 5.826 5.183 3.884 7.795 9.723 7.808 17.491v93.281c0 7.781-2.598 13.607-7.795 17.491-5.196 3.884-10.406 5.826-15.602 5.826h-23.371V230.277h23.357zm-3.522 180.134c49.219.08 64.768-38.09 64.768-63.282l-.013-94.995c-.014-25.205-15.978-63.322-63.442-63.322H79.607v221.599h62.143zM270 228.388h71.357l.014-39.535h-84.63c-14.933.375-26.759 12.776-26.397 27.709v167.559c.375 14.946 12.803 26.758 27.75 26.37h83.277v-39.603H270v-51.442h43.621v-39.602H270v-51.456zm146.625 154.407c14.183 32.986 45.857 41.183 63.536 0l51.509-193.929h-43.634L448.433 341.17l-39.79-152.304h-43.621l51.603 193.929z" clip-rule="evenodd"/></svg>
