<svg xmlns="http://www.w3.org/2000/svg" width="1em" fill="none" viewBox="0 0 600 600"><path fill="currentcolor" fill-rule="evenodd" d="M40 0C17.909 0 0 17.909 0 40v520c0 22.091 17.909 40 40 40h520c22.091 0 40-17.909 40-40V40c0-22.091-17.909-40-40-40H40zm431.073 223.711c0-3.828 0-7.657-.272-11.485 17.189-12.579 32.196-28.164 44.199-45.663-15.824 6.835-33.014 11.758-50.749 13.671 18.281-10.937 32.195-28.163 38.744-48.672-16.917 10.117-36.016 17.501-55.933 21.329C430.964 135.664 408.045 125 382.671 125c-48.839 0-88.128 39.648-88.128 88.32 0 6.836.819 13.672 2.182 20.234-73.121-3.828-138.331-38.828-181.713-92.422-7.64 13.126-12.005 28.165-12.005 44.57 0 30.626 15.552 57.696 39.289 73.555-14.46-.546-28.103-4.647-39.835-11.21v1.093c0 42.93 30.287 78.477 70.668 86.681-7.367 1.913-15.28 3.007-23.192 3.007-5.73 0-11.187-.547-16.644-1.367 11.187 35 43.655 60.43 82.399 61.25-30.286 23.789-68.212 37.734-109.41 37.734-7.367 0-14.188-.273-21.282-1.093C124.017 460.507 170.4 475 220.33 475c162.07 0 250.743-134.532 250.743-251.289z" clip-rule="evenodd"/></svg>
