<svg xmlns="http://www.w3.org/2000/svg" width="1em" fill="none" viewBox="0 0 600 600"><path fill="currentcolor" fill-rule="evenodd" d="M40 0C17.909 0 0 17.909 0 40v520c0 22.091 17.909 40 40 40h520c22.091 0 40-17.909 40-40V40c0-22.091-17.909-40-40-40H40zm174.46 448.193c2.842 0 5.095-1.569 5.095-3.529 0-2.254-2.547-3.822-5.487-3.528-2.841 0-5.095 1.568-5.095 3.528 0 2.254 2.254 3.823 5.487 3.529zm-21.164-3.137c-2.94-.588-4.9-2.842-4.214-4.803.686-1.96 3.528-2.94 6.075-2.254 2.94.882 4.801 3.137 4.214 5.097-.588 1.96-3.528 2.94-6.075 1.96zm34.588-1.666c-.294-2.254 1.666-4.117 4.507-4.803 2.842-.294 5.487.98 5.781 2.843.294 1.96-1.666 3.822-4.507 4.508-2.94.686-5.487-.588-5.781-2.548zM57 302.153C57 166.208 160.961 63 296.865 63 432.768 63 543 166.208 543 302.153c0 108.696-66.433 201.711-164.417 234.252-12.444 2.254-16.951-5.489-16.951-11.86 0-2.655.032-8.893.075-17.247.087-16.937.219-42.573.219-64.692 0-23.033-7.643-37.735-16.657-45.478 54.773-6.175 112.485-13.722 112.485-108.305 0-26.856-9.602-40.382-25.28-57.73 2.548-6.371 10.876-32.54-2.547-66.551-20.479-6.469-67.609 26.463-67.609 26.463-19.597-5.488-40.664-8.331-61.534-8.331-20.871 0-41.937 2.843-61.534 8.331 0 0-47.13-32.834-67.609-26.463-13.424 33.912-5.095 60.18-2.547 66.551-15.678 17.25-23.125 30.776-23.125 57.73 0 94.289 55.263 102.228 110.036 108.305-7.055 6.468-13.424 17.348-15.677 33.03-14.012 6.469-49.972 17.349-71.43-20.485-13.424-23.327-37.822-25.287-37.822-25.287-24.006-.294-1.568 15.094-1.568 15.094 16.069 7.351 27.24 35.873 27.24 35.873 14.403 43.91 82.992 29.208 82.992 29.208 0 13.336.123 32.104.21 45.319.047 7.181.084 12.722.084 14.861 0 6.371-4.409 14.114-16.951 11.86C125.393 503.864 57 410.849 57 302.153zm95.926 103.992c-1.666-1.862-1.959-4.117-.686-5.097 1.274-1.274 3.528-.588 5.095.98 1.666 1.863 1.96 4.117.686 5.097-1.273 1.274-3.527.588-5.095-.98zm-9.014-9.213c-1.96-.981-2.94-2.549-2.254-3.823.686-.98 2.254-1.274 4.213-.686 1.96.98 2.94 2.548 2.254 3.822-.686 1.373-2.646 1.667-4.213.687zm30.767 37.147c-2.254-1.863-2.842-4.803-1.274-6.077 1.274-1.568 4.213-1.274 6.369.98 1.959 1.862 2.547 4.803 1.274 6.077-1.274 1.568-4.116 1.274-6.369-.98zm-12.444-14.702c-1.568-2.255-1.568-4.803 0-5.783 1.567-1.274 4.115-.294 5.487 1.96 1.568 2.254 1.568 4.803 0 6.077-1.274.98-3.92 0-5.487-2.254z" clip-rule="evenodd"/></svg>
