<svg xmlns="http://www.w3.org/2000/svg" width="1em" fill="none" viewBox="0 0 600 600"><path fill="currentcolor" fill-rule="evenodd" d="M40 0C17.909 0 0 17.909 0 40v520c0 22.091 17.909 40 40 40h520c22.091 0 40-17.909 40-40V40c0-22.091-17.909-40-40-40H40zm52.41 227.947v286.339h89.063V227.947H92.411zm-7.097-90.67c0 28.393 23.035 51.562 51.562 51.562 28.527 0 51.563-23.035 51.563-51.562 0-28.393-23.17-51.563-51.563-51.563-28.527 0-51.563 23.17-51.563 51.563zm340.446 377.009h88.929V357.321c0-77.142-16.742-136.473-106.742-136.473-43.258 0-72.321 23.706-84.241 46.206H322.5v-39.107h-85.312v286.339h88.928V372.589c0-37.366 7.098-73.526 53.438-73.526 45.535 0 46.205 42.723 46.205 75.937v139.286z" clip-rule="evenodd"/></svg>
