<svg xmlns="http://www.w3.org/2000/svg" width="1em" fill="none" viewBox="0 0 600 600"><path fill="currentcolor" fill-rule="evenodd" d="M0 40C0 17.909 17.909 0 40 0h520c22.091 0 40 17.909 40 40v520c0 22.091-17.909 40-40 40H40c-22.091 0-40-17.909-40-40V40zm489 195v178.039a37.99 37.99 0 0 1-11.101 26.842A37.867 37.867 0 0 1 451.1 451H147.9c-10.052 0-19.692-4-26.799-11.119A37.99 37.99 0 0 1 110 413.039V235l180.973 90.538a18.922 18.922 0 0 0 17.054 0L489 235zm-379-41.851L299.5 288 489 193.149v-7.209a37.962 37.962 0 0 0-11.101-26.828A37.878 37.878 0 0 0 451.1 148H147.9c-20.845 0-37.9 17.073-37.9 37.94v7.209z" clip-rule="evenodd"/></svg>
